<?xml version="1.0" standalone="no"?>
<!DOCTYPE svg PUBLIC "-//W3C//DTD SVG 20010904//EN"
 "http://www.w3.org/TR/2001/REC-SVG-20010904/DTD/svg10.dtd">
<svg version="1.0" xmlns="http://www.w3.org/2000/svg"
 width="398.000000pt" height="429.000000pt" viewBox="0 0 398.000000 429.000000"
 preserveAspectRatio="xMidYMid meet">
<metadata>
Created by potrace 1.11, written by Peter Selinger 2001-2013
</metadata>
<g transform="translate(0.000000,429.000000) scale(0.100000,-0.100000)"
fill="#000000" stroke="none">
<path d="M477 4196 c-54 -36 -68 -75 -79 -204 -10 -129 -4 -236 17 -303 l14
-44 0 46 c3 209 117 312 281 254 51 -18 138 -82 146 -107 7 -23 -16 -92 -81
-243 -72 -167 -100 -318 -66 -359 18 -22 74 -20 95 2 9 11 26 48 37 83 26 77
43 98 133 157 74 49 112 98 146 190 22 58 22 59 -12 76 -13 6 -45 41 -73 77
-27 36 -83 99 -122 140 -40 41 -73 77 -73 80 0 4 -31 32 -68 63 -78 63 -140
94 -213 105 -43 7 -55 5 -82 -13z"/>
<path d="M1973 4180 c-85 -19 -148 -63 -276 -192 -71 -70 -131 -128 -135 -128
-4 0 -27 -25 -52 -55 -25 -30 -57 -60 -72 -66 -27 -11 -28 -14 -28 -82 0 -66
2 -71 34 -102 19 -18 59 -46 89 -63 70 -39 100 -76 155 -190 50 -103 40 -98
132 -75 35 9 35 10 32 59 -7 142 -58 314 -118 393 -73 97 -77 145 -18 208 33
35 35 36 97 31 126 -10 256 -102 293 -207 l19 -51 12 32 c23 66 8 389 -21 433
-31 47 -86 68 -143 55z"/>
<path d="M1997 3262 c-58 -120 -72 -191 -52 -264 58 -211 58 -210 51 -298 -6
-86 -6 -86 26 -130 18 -23 37 -48 42 -55 13 -18 -1 -78 -29 -119 -16 -24 -25
-51 -25 -76 0 -38 -2 -40 -31 -40 -29 0 -30 -1 -15 -22 23 -33 20 -38 -24 -38
-42 0 -47 -8 -29 -42 13 -25 -1 -38 -44 -38 -16 0 -27 -4 -25 -8 8 -21 130
-232 134 -232 2 0 11 14 20 32 15 30 17 31 30 13 7 -10 15 -23 17 -29 3 -6 15
-1 30 13 l26 24 13 -29 12 -29 3 40 c13 157 57 302 110 357 l25 27 -34 35
c-22 23 -49 71 -73 129 -26 65 -48 102 -73 125 l-37 33 0 107 c0 95 -4 118
-34 206 -30 88 -33 107 -28 171 3 45 17 101 36 150 17 43 29 80 27 82 -1 2
-24 -41 -49 -95z"/>
<path d="M934 3342 c-24 -16 -44 -59 -44 -93 0 -69 59 -89 129 -44 62 38 63
78 5 124 -27 21 -70 27 -90 13z"/>
<path d="M1488 3334 c-61 -32 -63 -83 -6 -124 75 -55 146 -27 135 52 -10 75
-66 107 -129 72z"/>
<path d="M515 3319 c4 -13 14 -40 22 -59 8 -19 23 -59 34 -88 l18 -54 -41 -81
c-78 -156 -116 -311 -106 -440 3 -34 -1 -95 -9 -137 -11 -58 -13 -122 -7 -285
6 -198 8 -216 39 -320 18 -60 35 -119 38 -130 3 -11 5 -4 6 17 4 128 129 277
234 278 25 0 27 2 16 23 -6 12 -68 79 -136 149 l-126 127 8 88 c4 48 9 162 10
253 2 182 13 232 79 370 31 63 33 76 29 137 -5 67 -6 69 -60 122 -43 42 -54
49 -48 30z"/>
<path d="M1142 3024 c-24 -16 -46 -83 -36 -108 9 -23 41 -20 47 4 6 25 33 26
46 2 12 -22 3 -38 -24 -43 -26 -5 -32 -37 -8 -45 10 -3 32 -12 49 -20 27 -14
34 -13 60 0 16 8 37 17 47 20 24 8 18 40 -8 44 -30 6 -38 18 -26 41 16 28 39
27 51 -4 11 -29 37 -24 46 10 7 28 -19 90 -43 104 -31 16 -176 13 -201 -5z"/>
<path d="M944 2741 c26 -72 57 -118 93 -138 34 -18 35 -18 49 2 15 20 16 19
36 -9 52 -70 186 -75 252 -10 21 21 29 24 40 15 16 -13 61 4 85 32 10 12 61
133 61 144 0 2 -16 -12 -36 -31 -65 -63 -140 -70 -233 -22 l-45 23 -60 -28
c-94 -45 -151 -37 -219 29 l-38 37 15 -44z"/>
<path d="M2917 1162 c3 -42 1 -88 -5 -101 -8 -21 -3 -33 35 -81 42 -55 63
-103 63 -147 0 -19 -6 -22 -47 -26 -27 -2 17 -4 97 -5 80 -1 177 3 215 9 39 5
88 12 110 15 67 9 73 14 42 30 -35 19 -26 34 21 35 l37 1 -50 24 c-27 13 -61
24 -75 25 -22 0 -21 2 10 13 l35 13 -35 22 c-19 12 -53 26 -75 32 -22 5 -47
13 -55 16 -23 9 35 23 103 25 31 1 57 4 57 6 0 11 -77 32 -117 32 -64 0 -44
19 31 29 83 11 89 25 19 42 -21 5 -60 9 -88 9 l-50 1 35 19 35 19 -152 -6
c-130 -5 -155 -4 -176 10 l-25 16 5 -77z"/>
<path d="M2061 921 c-19 -12 -8 -81 24 -149 22 -48 27 -52 60 -52 32 0 34 2
23 19 -9 15 -9 28 0 59 18 60 15 90 -10 106 -31 19 -80 28 -97 17z"/>
</g>
</svg>
