<?xml version="1.0" encoding="UTF-8" standalone="no"?>
<!-- Created with Inkscape (http://www.inkscape.org/) -->

<svg
   xmlns:dc="http://purl.org/dc/elements/1.1/"
   xmlns:cc="http://creativecommons.org/ns#"
   xmlns:rdf="http://www.w3.org/1999/02/22-rdf-syntax-ns#"
   xmlns:svg="http://www.w3.org/2000/svg"
   xmlns="http://www.w3.org/2000/svg"
   xmlns:sodipodi="http://sodipodi.sourceforge.net/DTD/sodipodi-0.dtd"
   xmlns:inkscape="http://www.inkscape.org/namespaces/inkscape"
   width="744.09448819"
   height="1052.3622047"
   id="svg3016"
   version="1.1"
   inkscape:version="0.48.0 r9654"
   sodipodi:docname="pugshadow.svg">
  <defs
     id="defs3018" />
  <sodipodi:namedview
     id="base"
     pagecolor="#ffffff"
     bordercolor="#666666"
     borderopacity="1.0"
     inkscape:pageopacity="0.0"
     inkscape:pageshadow="2"
     inkscape:zoom="0.35"
     inkscape:cx="375"
     inkscape:cy="520"
     inkscape:document-units="px"
     inkscape:current-layer="layer1"
     showgrid="false"
     inkscape:window-width="476"
     inkscape:window-height="463"
     inkscape:window-x="388"
     inkscape:window-y="103"
     inkscape:window-maximized="0" />
  <metadata
     id="metadata3021">
    <rdf:RDF>
      <cc:Work
         rdf:about="">
        <dc:format>image/svg+xml</dc:format>
        <dc:type
           rdf:resource="http://purl.org/dc/dcmitype/StillImage" />
        <dc:title></dc:title>
      </cc:Work>
    </rdf:RDF>
  </metadata>
  <g
     inkscape:label="Layer 1"
     inkscape:groupmode="layer"
     id="layer1">
    <path
       inkscape:connector-curvature="0"
       id="path3002"
       d="m 315.89209,551.20324 c -6.98121,-4.25694 -9.37798,-12.44917 -7.44446,-25.44539 1.17675,-7.9096 0.81127,-15.83166 -0.85475,-18.52734 -0.5316,-0.86014 -1.7841,-0.19261 -4.2324,2.25569 -8.09308,8.09308 -21.0995,4.51943 -30.54935,-8.39376 -1.79958,-2.45913 -4.73317,-6.456 -6.51909,-8.88193 -3.24048,-4.40177 -8.46696,-8.39247 -9.86209,-7.53023 -0.40521,0.25043 -1.88173,0.02 -3.28116,-0.51206 -1.95586,-0.74362 -2.92157,-2.26472 -4.17487,-6.57595 -0.89675,-3.08472 -2.94101,-7.10121 -4.5428,-8.92554 -3.58043,-4.07789 -5.90574,-9.44938 -5.90574,-13.64233 0,-1.73862 -1.18563,-6.36557 -2.63472,-10.28211 -1.96764,-5.31802 -2.6622,-9.14652 -2.74323,-15.12099 -0.10151,-7.4848 0.13257,-8.42908 3.63486,-14.66272 2.33497,-4.15598 4.27762,-9.42326 5.16339,-14 3.72861,-19.26563 11.87981,-37.87791 20.73356,-47.34261 3.14049,-3.35719 6.02947,-7.42938 6.41996,-9.04932 1.13426,-4.70548 4.0876,-9.95184 8.99125,-15.97219 8.69259,-10.67216 12.12952,-18.50097 9.66962,-22.02595 -0.40408,-0.57903 -2.3745,-2.04876 -4.37872,-3.26606 -2.00421,-1.2173 -6.6201,-5.36808 -10.25753,-9.22394 -13.05223,-13.83605 -16.87903,-22.57707 -12.76084,-29.14776 4.03397,-6.43632 26.07354,-25.03059 36.00529,-30.3768 2.56141,-1.3788 6.22632,-3.49394 8.14425,-4.70032 3.19267,-2.0082 4.57343,-2.17056 16.35122,-1.92267 11.27148,0.23723 13.38872,0.0168 17.10182,-1.7807 3.58312,-1.73456 6.62446,-2.10618 19.68834,-2.4057 11.80879,-0.27075 16.19561,-0.73951 18.61138,-1.98876 4.75336,-2.45806 13.61614,-2.02475 26.44252,1.2928 15.66597,4.052 27.8487,8.76661 30.69333,11.87804 2.13996,2.34067 2.31756,3.22159 1.78952,8.8763 -0.32242,3.45275 -1.97772,10.22437 -3.67844,15.04804 -5.62789,15.9621 -5.54781,15.46338 -3.54514,22.07775 1.99444,6.58718 1.55716,8.48137 -1.76543,7.64745 -2.16209,-0.54265 -2.20096,-0.36956 -2.18872,9.74691 0.011,9.10215 -0.29094,10.91263 -2.59761,15.57502 -2.56025,5.17495 -2.58225,5.39443 -1.15259,11.49942 1.98759,8.48746 1.17382,16.74852 -2.14367,21.76159 -2.56159,3.87083 -2.57112,3.95875 -1.10357,10.18336 1.92143,8.14972 1.89448,16.91762 -0.0867,28.19256 -2.15189,12.24662 -4.95168,21.11673 -8.47543,26.85128 -1.85668,3.02157 -2.93056,6.13161 -2.93501,8.5 -0.009,4.94779 -3.11026,17.62278 -7.00377,28.62731 -4.27411,12.08025 -5.23871,18.79761 -3.97689,27.69457 1.13461,8.00011 5.00685,17.645 8.33853,20.76944 1.18203,1.1085 4.02612,3.2818 6.3202,4.82956 11.68605,7.88426 12.06919,17.3484 0.90754,22.41777 -11.87202,5.392 -22.92675,-0.85191 -29.58923,-16.7125 -4.5215,-10.76381 -5.94041,-17.29637 -6.05813,-27.89117 -0.11106,-9.99445 -1.1652,-20.0673 -2.20937,-21.11146 -0.37417,-0.37417 -3.27716,0.4734 -6.45109,1.88351 -8.64358,3.84014 -16.9157,6.32965 -27.76463,8.3558 -11.97473,2.2364 -12.35291,2.74052 -10.56595,14.08436 2.82663,17.94376 7.2516,37.46504 9.70913,42.83301 2.86714,6.26265 3.48119,13.90343 1.50657,18.7467 -1.42192,3.48763 -9.9642,7.68599 -15.6559,7.69457 -2.2,0.003 -5.40998,-0.85373 -7.13329,-1.90455 z m 17.31619,-21.83194 c -0.30271,-0.9625 -1.23266,-3.60353 -2.06657,-5.86896 -0.8339,-2.26543 -3.14676,-13.49129 -5.13967,-24.94636 -3.07777,-17.69068 -3.52532,-22.11562 -2.97171,-29.38104 0.92966,-12.20055 0.75414,-11.87653 6.24596,-11.53086 2.57861,0.16231 4.77518,0.67358 4.88127,1.13616 0.10608,0.46259 0.481,2.13906 0.83315,3.72551 0.62588,2.81964 0.75706,2.87238 5.83747,2.34704 13.76057,-1.42291 28.47777,-11.60123 34.65823,-23.96941 1.67143,-3.34484 3.03897,-6.67045 3.03897,-7.39026 0,-0.7198 2.5875,-3.18628 5.75,-5.48107 7.74482,-5.61983 11.61282,-9.31164 16.90053,-16.13073 5.87155,-7.57201 8.93799,-14.49859 11.46127,-25.88912 2.2626,-10.21376 2.26286,-25.43381 5.1e-4,-29.66105 -1.10328,-2.0615 -1.38684,-2.11925 -3.93519,-0.80144 -1.51043,0.78107 -4.36292,1.72342 -6.33886,2.09411 -2.34443,0.43982 -4.36419,1.71757 -5.81336,3.67767 -2.64683,3.58004 -7.85355,5.96135 -12.36945,5.65722 -1.79891,-0.12115 -4.35743,0.54087 -5.6856,1.47116 -1.7075,1.19597 -4.45734,1.69143 -9.38764,1.69143 -6.2152,0 -7.27938,0.29375 -9.79484,2.70371 -2.33128,2.23351 -3.94372,2.77513 -9.27167,3.11439 -5.49035,0.3496 -7.08662,0.0433 -10.73265,-2.05953 -2.35568,-1.35862 -5.7778,-2.7553 -7.60472,-3.10373 -5.79228,-1.1047 -12.12926,-6.72548 -25.28967,-22.43147 -9.92831,-11.84871 -13.29104,-16.62161 -14.98613,-21.27053 -2.15046,-5.89784 -2.21024,-5.9575 -3.73076,-3.72336 -0.84991,1.24878 -3.45035,4.41677 -5.77877,7.03996 -4.48473,5.0525 -9.393,13.90467 -9.393,16.94047 0,0.99948 -0.53564,2.67493 -1.19031,3.72322 -1.45893,2.33612 -0.10599,8.98552 3.83013,18.82426 2.26514,5.66196 2.47611,7.03309 1.49828,9.73726 -1.51751,4.19658 -1.43471,9.79058 0.2763,18.66738 2.98224,15.47204 9.36032,28.49335 17.97068,36.68847 9.33927,8.88887 10.23523,9.96899 11.53421,13.90494 1.62597,4.92675 0.87698,7.38163 -3.62607,11.88467 -3.32161,3.32161 -3.50119,3.82822 -2.90674,8.20011 0.34848,2.56288 2.65764,8.74379 5.13146,13.73536 2.47383,4.99157 5.64692,13.49661 7.05133,18.90008 3.0121,11.58912 6.96676,19.82678 11.59019,24.14266 5.62307,5.24901 10.63291,7.15947 9.52344,3.63168 z m 61.90963,-15.12435 c 0.0577,-2.625 0.90427,-5.30634 2.25,-7.12653 2.55709,-3.45865 2.64595,-3.99912 0.65747,-3.99912 -0.825,0 -2.36991,-0.86991 -3.43314,-1.93314 -1.06322,-1.06322 -3.11122,-2.70505 -4.55111,-3.6485 -4.50154,-2.94952 -5.78319,-6.73073 -5.01347,-14.79112 0.97335,-10.19274 3.98892,-25.35594 7.01694,-35.28328 1.43438,-4.70257 2.46305,-8.69502 2.28594,-8.87213 -0.1771,-0.1771 -4.29984,3.92977 -9.16163,9.12638 -6.54714,6.99801 -8.6618,9.89619 -8.15394,11.17508 0.37713,0.94969 1.06297,8.92671 1.5241,17.72671 0.70791,13.50972 1.25813,17.16732 3.53513,23.5 3.31865,9.22967 5.61996,13.80441 8.45306,16.80368 2.99311,3.16867 4.48119,2.30057 4.59065,-2.67803 z m -94.01312,-27.58984 c -1.2019,-2.87654 -2.01662,-3.60998 -3.73026,-3.35809 -1.20587,0.17725 -2.32256,0.77228 -2.48153,1.32228 -0.29888,1.03408 6.6547,6.81101 7.35516,6.11056 0.21691,-0.21692 -0.29761,-2.05055 -1.14337,-4.07475 z m -11.76431,-6.55112 c 2.57669,-0.008 5.25598,-0.37778 5.95396,-0.8208 1.31751,-0.83624 1.42484,-0.46189 -4.6399,-16.18322 -1.17104,-3.03563 -2.12916,-6.73247 -2.12916,-8.2152 0,-1.5899 -1.27421,-4.14713 -3.10596,-6.23337 -5.14818,-5.86345 -1.34974,-9.259 4.30124,-3.84501 1.5426,1.4779 2.80472,2.26394 2.80472,1.74675 0,-0.51718 -1.34565,-2.21042 -2.99034,-3.76274 -3.26548,-3.08208 -8.91479,-14.2131 -11.30008,-22.2649 -0.82996,-2.80159 -3.49712,-7.99774 -5.92704,-11.547 -5.05107,-7.37784 -9.05376,-18.93384 -11.13339,-32.14274 -0.7606,-4.83095 -1.66198,-9.06262 -2.00307,-9.40372 -0.3411,-0.34109 -1.82075,2.0365 -3.28811,5.28354 -2.24517,4.96823 -2.70075,7.4883 -2.87507,15.90372 -0.11393,5.5 -0.5234,11.57622 -0.90993,13.50272 -1.06046,5.28546 1.81763,17.11683 6.13368,25.21466 3.75514,7.04542 18.02213,22.90473 24.79152,27.55847 5.64095,3.87797 1.84367,3.2285 -5.99835,-1.02594 -7.8133,-4.23885 -14.1447,-9.78666 -22.31285,-19.55135 -4.9851,-5.95949 -10.42568,-8.32209 -14.68992,-6.37917 -3.27195,1.4908 -3.27125,5.02169 0.003,14.77535 1.375,4.09605 2.50251,8.45039 2.50558,9.67631 0.0125,4.98556 2.31127,10.03873 6.4995,14.28711 2.40842,2.44301 5.01533,4.44184 5.79313,4.44184 0.7778,0 3.3914,1.50378 5.80799,3.34173 2.41659,1.83796 5.4869,3.92193 6.82291,4.63105 3.30092,1.75204 12.04659,2.8317 14.88599,1.83769 1.2733,-0.44576 4.4233,-0.81736 7,-0.82578 z m 64.50064,-109.10965 c 1.20134,-0.61873 3.23352,-2.08123 4.51594,-3.25 1.93309,-1.76178 3.58593,-2.12504 9.66888,-2.12504 6.14224,0 7.71686,-0.35297 9.66832,-2.16727 1.92972,-1.79409 3.13594,-2.07451 7.00509,-1.62852 4.10361,0.47301 4.99734,0.21539 7.32387,-2.11114 3.39307,-3.39307 2.81272,-5.01223 -1.93919,-5.41023 -2.72241,-0.22802 -4.38712,0.24513 -5.92271,1.68338 -3.351,3.13859 -7.14054,4.13378 -15.74088,4.13378 -6.14806,0 -8.92519,0.48489 -12.12416,2.11688 -5.15726,2.63104 -11.38525,2.12571 -18.55039,-1.50514 -9.6914,-4.911 -14.22051,-10.33282 -14.22051,-17.02344 0,-2.77463 -0.84639,-4.34899 -4.03552,-7.50641 -6.32381,-6.26092 -8.80277,-12.87535 -10.64026,-28.39065 -1.9275,-16.27523 -1.43099,-19.74373 3.49205,-24.395 4.00518,-3.78409 12.48804,-8.2683 15.68373,-8.29075 1.1,-0.008 4.025,-1.3602 6.5,-3.00549 2.475,-1.64529 5.53295,-2.99336 6.79545,-2.99572 2.60175,-0.005 7.20455,4.11605 7.20455,6.45027 0,2.24232 1.75407,1.89566 2.51339,-0.49672 0.8944,-2.81803 -0.37398,-9.59724 -2.05698,-10.994 -1.5532,-1.28905 -7.4804,-0.57229 -13.84919,1.67475 -2.15556,0.76053 -4.15726,1.14471 -4.44823,0.85374 -0.29097,-0.29097 1.24172,-2.36385 3.40599,-4.6064 3.71922,-3.85376 18.70145,-11.88592 22.17058,-11.88592 1.88098,0 7.52962,3.13295 8.56413,4.75 1.30093,2.03349 4.56031,1.4424 9.03939,-1.63928 5.36483,-3.6911 14.66092,-6.44795 14.66092,-4.34785 0,0.41958 -0.9772,1.20708 -2.17156,1.75 -6.25214,2.84205 -8.5218,14.19069 -4.2879,21.44012 3.08584,5.2837 4.86208,5.24487 3.82601,-0.0836 -1.39585,-7.1788 -1.01381,-12.49665 1.06259,-14.79105 2.52094,-2.78561 5.50098,-2.61757 10.18131,0.57411 2.13925,1.45883 5.23955,2.96436 6.88955,3.34561 1.65,0.38126 4.0125,1.018 5.25,1.41498 3.79887,1.21864 2.70237,-1.95031 -2.56616,-7.41632 -5.17418,-5.36811 -7.78976,-6.48113 -6.62789,-2.82039 l 0.69073,2.1763 -3.37334,-2.12924 c -1.85534,-1.17109 -3.52739,-2.93792 -3.71566,-3.9263 -0.58348,-3.06303 -8.32537,-10.29705 -11.01996,-10.29705 -1.60626,0 -3.59321,-1.34041 -5.78821,-3.90478 -3.20171,-3.74048 -10.07063,-7.09522 -14.52765,-7.09522 -2.85874,0 -2.19293,1.37923 3.01947,6.25482 3.89087,3.63945 5.36329,4.42872 7.5,4.02026 2.97548,-0.5688 3.14379,-0.0392 1.53358,4.8257 -1.18205,3.57128 -7.44952,10.28016 -8.81526,9.43609 -0.43832,-0.2709 -1.07466,-2.22928 -1.41409,-4.35195 -0.33943,-2.12267 -2.20186,-7.02706 -4.13873,-10.89864 -3.76098,-7.51776 -4.97891,-8.28628 -13.13183,-8.28628 -3.97431,0 -4.30915,1.1579 -0.96794,3.34715 1.40836,0.92279 3.10965,3.69244 4.10041,6.67533 1.57423,4.73958 1.57725,5.22642 0.0429,6.92189 -0.90775,1.00306 -3.76543,2.4135 -6.3504,3.13432 -3.36168,0.93741 -6.20642,2.81427 -9.99066,6.59145 l -5.29071,5.28086 0.67268,-3.58569 0.67268,-3.5857 -3.99405,0.67479 c -3.89079,0.65735 -4.01079,0.59105 -4.64194,-2.56472 -0.48006,-2.4003 -0.16912,-3.77708 1.20031,-5.3146 1.01652,-1.14129 2.83012,-3.71793 4.03022,-5.72586 1.2001,-2.00792 2.8479,-3.9063 3.66177,-4.21861 0.81384,-0.31231 1.47973,-1.25696 1.47973,-2.09922 0,-1.22562 -1.34775,-1.52798 -6.75,-1.51432 l -6.75,0.0171 -2.39789,5.53805 c -1.31885,3.04593 -4.11624,7.69619 -6.21643,10.33392 -2.10019,2.63773 -5.06168,7.22543 -6.58108,10.19489 -2.38845,4.66788 -2.75828,6.55005 -2.73107,13.899 0.0173,4.675 0.40268,12.55 0.85637,17.5 1.04452,11.39622 -0.42659,19.28771 -4.44976,23.86984 -2.63839,3.00496 -2.78046,3.5727 -1.88797,7.54486 1.51419,6.73917 3.38489,9.63179 16.0191,24.76995 12.04725,14.43487 18.22838,19.83328 24.03972,20.99555 1.78498,0.35699 4.79402,1.69999 6.68676,2.98444 3.72061,2.52488 8.9423,3.03139 12.47799,1.2104 z m -25.24265,-42.0183 c 2.68552,-5.26407 2.45424,-6.26428 -1.80466,-7.80432 -2.05236,-0.74214 -6.07849,-3.75321 -8.94694,-6.69125 -2.86845,-2.93805 -5.41696,-5.00874 -5.66335,-4.60154 -0.85536,1.41362 1.41063,12.45485 3.32706,16.21136 1.0599,2.07758 3.34718,4.97235 5.08284,6.43281 3.67085,3.08882 4.8968,2.5456 8.00505,-3.54706 z m 90.90413,-23.24699 c 0.70841,-3.41243 0.79904,-7.12485 0.24978,-10.23257 -0.86033,-4.86785 -0.86341,-4.85996 -1.60796,4.12282 -0.41029,4.95 -0.99063,9.84385 -1.28965,10.87523 -0.33341,1.15003 -0.14152,1.62669 0.4962,1.23256 0.57192,-0.35346 1.54015,-3.05259 2.15163,-5.99804 z m -3.56783,-2.78177 c 0.81373,-4.58304 -0.44579,-5.48259 -3.34923,-2.39201 -2.15523,2.29413 -2.17201,2.4637 -0.49671,5.02052 2.02063,3.08387 2.94371,2.45299 3.84594,-2.62851 z m -81.43729,2.70564 c 2.19079,-2.63975 0.58778,-3.50798 -1.82706,-0.98958 -1.70476,1.77788 -1.94564,2.45596 -0.87244,2.45596 0.81538,0 2.03015,-0.65987 2.6995,-1.46638 z m 3.0279,-9.57686 c 0,-5.38682 -4.25781,-10.27983 -8.52348,-9.79504 l -2.97652,0.33828 3.65021,2.15739 c 2.64214,1.5616 3.83646,3.08051 4.32465,5.5 1.15328,5.71567 1.63792,6.89094 2.59714,6.29811 0.5104,-0.31544 0.928,-2.33988 0.928,-4.49874 z m 73.05539,-3.9864 c 2.5183,-1.34776 4.94461,-6.13029 4.94461,-9.74639 0,-1.82665 -0.96129,-3.75953 -2.63572,-5.29966 -2.49638,-2.29616 -2.57568,-2.30884 -1.5,-0.24005 2.75087,5.29059 0.85772,10.59233 -4.4022,12.32825 -2.89139,0.95425 -3.33569,1.43485 -2.38523,2.58009 1.38427,1.66794 3.33724,1.79134 5.97854,0.37776 z m -49.6835,-16.25303 c 1.66973,-1.22093 1.66554,-1.52134 -0.0871,-6.24174 -1.92992,-5.19784 -5.28479,-7.45986 -5.28479,-3.56326 0,2.77017 2.26268,11.08767 3.01628,11.08767 0.3308,0 1.39083,-0.5772 2.35561,-1.28267 z m 15.8138,-2.23635 c 1.04701,-1.04702 -1.45799,-10.48098 -2.78302,-10.48098 -2.93202,0 -4.85743,9.24633 -2.15267,10.33772 1.72068,0.69431 4.30949,0.76945 4.93569,0.14326 z m 2.81431,-44.98098 c -0.68469,-0.825 -1.97729,-1.48569 -2.87244,-1.4682 -1.36732,0.0267 -1.31719,0.26656 0.31357,1.5 2.52654,1.91098 4.15444,1.89075 2.55887,-0.0318 z"
       style="fill:#a98e6f" />
  </g>
</svg>
